<svg xmlns:xlink="http://www.w3.org/1999/xlink" xmlns="http://www.w3.org/2000/svg" class="AssemblyIcon AssemblyIcon--small" aria-label="Facebook" width="14"  height="25" ><defs><symbol id="facebook" viewBox="0 0 14 25"><path d="M.906 13.559v-4.16h3.692V6.233a8 8 0 0 1 .088-1.215c.058-.381.146-.738.263-1.07a5.54 5.54 0 0 1 .44-.908 4.02 4.02 0 0 1 .615-.791 4.9 4.9 0 0 1 .747-.615 3.98 3.98 0 0 1 .894-.44A6.68 6.68 0 0 1 8.743.932 7.753 7.753 0 0 1 9.93.844h3.222V4.77h-2.226c-.196 0-.381.004-.557.014-.176.01-.342.044-.498.103a.933.933 0 0 0-.351.117 1.54 1.54 0 0 0-.499.498 1.62 1.62 0 0 0-.146.322 2.223 2.223 0 0 0-.132.41 2.25 2.25 0 0 0-.044.47v2.694h4.16l-.468 4.16H8.699v10.723H4.598V13.56H.906z" fill-rule="evenodd"></path></symbol></defs><noscript fill="currentColor"></noscript><use xlink:href="#facebook" fill="currentColor"></use><noscript fill="currentColor"></noscript></svg>