<svg xmlns:xlink="http://www.w3.org/1999/xlink" xmlns="http://www.w3.org/2000/svg" class="AssemblyIcon AssemblyIcon--small" aria-label="Instagram" width="24"  height="25" ><defs><symbol id="instagram" viewBox="0 0 24 25"><path d="M12 .719c-1.602 0-2.651.005-3.15.014-.497.01-1.059.035-1.684.074a9.019 9.019 0 0 0-1.611.175c-.45.098-.86.215-1.23.352a6.255 6.255 0 0 0-1.085.557 7.057 7.057 0 0 0-.996.79 5.55 5.55 0 0 0-.806.997 7.017 7.017 0 0 0-.542 1.084 9.247 9.247 0 0 0-.351 1.23A10.9 10.9 0 0 0 .34 7.604c-.02.625-.034 1.19-.044 1.699-.01.508-.015 1.552-.015 3.134 0 1.602.005 2.652.015 3.15.01.498.024 1.06.044 1.684a10.9 10.9 0 0 0 .205 1.612c.098.449.215.86.351 1.23.157.39.337.752.542 1.084.206.332.474.664.806.996.332.332.664.6.996.806.332.205.694.386 1.084.542.371.137.781.254 1.23.352.45.097.987.166 1.612.205.625.02 1.187.034 1.685.044.498.01 1.547.014 3.149.014 1.582 0 2.627-.005 3.135-.014.508-.01 1.074-.025 1.699-.044a10.9 10.9 0 0 0 1.611-.205c.45-.098.86-.215 1.23-.352a6.995 6.995 0 0 0 1.085-.542 5.55 5.55 0 0 0 .996-.806c.312-.332.576-.664.79-.996.216-.332.401-.693.558-1.084.136-.37.253-.781.351-1.23.098-.45.156-.987.176-1.612a40.22 40.22 0 0 0 .073-1.684c.01-.498.015-1.548.015-3.15 0-1.582-.005-2.626-.015-3.134a39.702 39.702 0 0 0-.073-1.7 9.019 9.019 0 0 0-.176-1.61 9.247 9.247 0 0 0-.351-1.231 6.287 6.287 0 0 0-.557-1.084 7.057 7.057 0 0 0-.791-.996 7.057 7.057 0 0 0-.996-.791 6.287 6.287 0 0 0-1.084-.557 9.247 9.247 0 0 0-1.23-.352 9.019 9.019 0 0 0-1.612-.175 39.702 39.702 0 0 0-1.7-.074C14.628.723 13.583.72 12 .72zm0 2.11c1.563 0 2.588.004 3.076.014s1.035.034 1.64.073c.587.02 1.046.068 1.378.147.332.078.605.156.82.234.273.117.513.244.718.38.205.137.415.303.63.499.195.215.361.425.498.63.136.205.263.444.38.717.079.215.157.489.235.82.078.333.127.792.146 1.378.04.605.064 1.152.074 1.64.01.489.014 1.514.014 3.076 0 1.563-.005 2.588-.014 3.077a39.86 39.86 0 0 1-.074 1.67c-.019.566-.068 1.015-.146 1.347a7.468 7.468 0 0 1-.234.82 4.464 4.464 0 0 1-.381.718 5.385 5.385 0 0 1-.498.63 5.385 5.385 0 0 1-.63.498 4.464 4.464 0 0 1-.718.381 7.468 7.468 0 0 1-.82.235c-.332.078-.791.136-1.377.175-.606.02-1.153.034-1.64.044-.49.01-1.514.015-3.077.015s-2.588-.005-3.076-.015c-.488-.01-1.045-.024-1.67-.044-.566-.039-1.016-.097-1.348-.175a7.468 7.468 0 0 1-.82-.235 4.464 4.464 0 0 1-.718-.38 5.385 5.385 0 0 1-.63-.499 5.385 5.385 0 0 1-.498-.63 4.464 4.464 0 0 1-.38-.717 7.468 7.468 0 0 1-.235-.82 8.823 8.823 0 0 1-.176-1.348c-.02-.625-.034-1.182-.044-1.67a197.45 197.45 0 0 1-.014-3.076c0-1.563.005-2.588.014-3.077.01-.488.025-1.035.044-1.64.04-.586.098-1.045.176-1.377.078-.332.156-.606.234-.82.118-.274.245-.513.381-.718.137-.205.303-.415.498-.63a4.403 4.403 0 0 1 1.348-.879c.215-.078.488-.156.82-.235.332-.078.782-.126 1.348-.146a39.86 39.86 0 0 1 1.67-.073c.488-.01 1.514-.015 3.076-.015zm0 13.505c-1.074 0-1.992-.38-2.754-1.143-.762-.761-1.142-1.68-1.142-2.754s.38-1.992 1.142-2.753c.762-.762 1.68-1.143 2.754-1.143s1.992.38 2.754 1.143c.762.761 1.142 1.68 1.142 2.754s-.38 1.992-1.142 2.753c-.762.762-1.68 1.143-2.754 1.143zm0-9.902c-.84 0-1.621.156-2.344.468a6.033 6.033 0 0 0-3.193 3.208 5.873 5.873 0 0 0-.469 2.33c0 .84.156 1.62.469 2.343a6.078 6.078 0 0 0 3.193 3.194 5.841 5.841 0 0 0 2.344.468c.82 0 1.597-.156 2.33-.468a6.033 6.033 0 0 0 3.207-3.194 5.841 5.841 0 0 0 .469-2.344c0-.82-.156-1.596-.469-2.329a6.033 6.033 0 0 0-1.289-1.919A6.033 6.033 0 0 0 14.329 6.9 5.873 5.873 0 0 0 12 6.432zm7.646-.235c0-.39-.136-.722-.41-.996a1.356 1.356 0 0 0-.996-.41c-.39 0-.722.137-.996.41-.273.274-.41.606-.41.996s.137.723.41.996c.274.274.606.41.996.41s.723-.136.996-.41c.274-.273.41-.605.41-.996z" fill-rule="evenodd"></path></symbol></defs><noscript fill="currentColor"></noscript><use xlink:href="#instagram" fill="currentColor"></use><noscript fill="currentColor"></noscript></svg>