<svg xmlns:xlink="http://www.w3.org/1999/xlink" xmlns="http://www.w3.org/2000/svg" class="AssemblyIcon AssemblyIcon--small" aria-label="YouTube" width="24"  height="24" ><defs><symbol id="youtube" viewBox="0 0 24 24">
<path fill-rule="evenodd" clip-rule="evenodd" d="M9.935 14.1958L9.93437 8.53656L15.3381 11.3759L9.935 14.1958ZM21.8 7.5559C21.8 7.5559 21.6044 6.168 21.005 5.55682C20.2444 4.75429 19.3919 4.75051 19.0012 4.70394C16.2025 4.5 12.0044 4.5 12.0044 4.5H11.9956C11.9956 4.5 7.7975 4.5 4.99875 4.70394C4.6075 4.75051 3.75563 4.75429 2.99437 5.55682C2.395 6.168 2.2 7.5559 2.2 7.5559C2.2 7.5559 2 9.18613 2 10.8157V12.344C2 13.9742 2.2 15.6038 2.2 15.6038C2.2 15.6038 2.395 16.9917 2.99437 17.6029C3.75563 18.4055 4.755 18.3803 5.2 18.464C6.8 18.6188 12 18.6667 12 18.6667C12 18.6667 16.2025 18.6604 19.0012 18.4564C19.3919 18.4092 20.2444 18.4055 21.005 17.6029C21.6044 16.9917 21.8 15.6038 21.8 15.6038C21.8 15.6038 22 13.9742 22 12.344V10.8157C22 9.18613 21.8 7.5559 21.8 7.5559Z"></path>
</symbol></defs><noscript fill="currentColor"></noscript><use xlink:href="#youtube" fill="currentColor"></use><noscript fill="currentColor"></noscript></svg>