<svg xmlns:xlink="http://www.w3.org/1999/xlink" xmlns="http://www.w3.org/2000/svg" aria-label="Diller" class="AssemblyIcon AssemblyIcon--medium" role="img" width="65"  height="65" ><defs><symbol fill="none" id="new-topic-languages" viewBox="0 0 65 65">
<g clip-path="url(#clip0_6908:5989)" fill="none">
<path d="M43.8963 27.5806C41.4508 27.4269 39.0028 27.8411 36.7441 28.7909C34.4853 29.7406 32.477 31.2001 30.8761 33.0552C29.2752 34.9102 28.1253 37.1105 27.5163 39.4839C26.9072 41.8573 26.8556 44.3395 27.3654 46.7362C27.8753 49.1328 28.9327 51.3791 30.4551 53.2991C31.9775 55.2191 33.9234 56.7608 36.1407 57.8036C38.3581 58.8465 40.7866 59.3621 43.2364 59.3102C45.6861 59.2583 48.0906 58.6403 50.2618 57.5046C50.333 57.467 50.4131 57.4494 50.4935 57.4538C50.5728 57.4598 50.6493 57.486 50.7156 57.5299C52.7876 58.9103 55.2296 59.6295 57.719 59.5926C57.7778 59.5947 57.8363 59.5839 57.8904 59.5608C57.9712 59.5269 58.0404 59.4701 58.0895 59.3973C58.1385 59.3246 58.1653 59.2392 58.1665 59.1515V53.7728C58.1672 53.6686 58.1312 53.5675 58.0649 53.4872C57.996 53.4076 57.9019 53.3539 57.7983 53.3349C57.2852 53.2566 56.7841 53.1137 56.3069 52.9097C56.2487 52.8841 56.1967 52.8462 56.1546 52.7986C56.1101 52.7513 56.0784 52.6934 56.0626 52.6304C56.0483 52.5678 56.0483 52.5027 56.0626 52.44C56.0718 52.3767 56.0945 52.3161 56.1292 52.2623C58.0477 49.4113 58.9826 46.0117 58.7916 42.5806C58.5674 38.6932 56.929 35.0221 54.1852 32.2591C51.4415 29.4961 47.782 27.8321 43.8963 27.5806Z" fill="#5021E3"></path>
<path fill-rule="evenodd" clip-rule="evenodd" d="M47.3575 49.8926H49.9352L44.3244 37.2505H41.5863L35.8982 49.8926H38.4759L39.7275 47.1116H46.1173L47.3575 49.8926ZM45.0662 44.7516L42.941 39.9714L40.7929 44.7602L45.0662 44.7516Z" fill="#FFFFFF"></path>
<path d="M5.71296 23.7186C5.48949 27.7185 6.5789 31.682 8.81534 35.0057C8.85666 35.068 8.88415 35.1384 8.89596 35.2121C8.90682 35.2855 8.9013 35.3604 8.87982 35.4314C8.85807 35.5035 8.82184 35.5705 8.77337 35.6281C8.7219 35.683 8.66064 35.7279 8.59276 35.7604C8.0364 35.9973 7.45243 36.163 6.85458 36.2538C6.72913 36.2718 6.61451 36.3349 6.53209 36.4311C6.45402 36.5205 6.41051 36.6349 6.40951 36.7536V43.0325C6.41067 43.1012 6.42494 43.1691 6.45147 43.2324C6.50475 43.359 6.60541 43.4597 6.73199 43.513C6.79533 43.539 6.86355 43.5511 6.93198 43.5485C9.17243 43.5738 11.3885 43.0816 13.4076 42.1102C13.989 41.8243 14.5513 41.5012 15.091 41.1427C15.1683 41.0901 15.2587 41.06 15.3522 41.0556C15.4452 41.0486 15.5381 41.0688 15.6198 41.1137C19.1618 42.9587 23.2059 43.6076 27.1473 42.9633C31.0887 42.3191 34.7157 40.4164 37.4859 37.5397C40.2561 34.663 42.0207 30.9668 42.5159 27.0039C43.0111 23.041 42.2102 19.0243 40.233 15.5544C38.2557 12.0845 35.2085 9.3478 31.5468 7.75356C27.8851 6.15932 23.8057 5.79319 19.9186 6.7099C16.0315 7.62661 12.5457 9.77691 9.98216 12.8393C7.41865 15.9017 5.91524 19.7116 5.69682 23.6993L5.71296 23.7186Z" fill="#A533FF"></path>
<path fill-rule="evenodd" clip-rule="evenodd" d="M30.853 29.8109L26.6198 25.6285C27.9258 23.7664 29.0049 21.7552 29.8343 19.6374L30.5007 17.8254H16.3511V20.5195H26.5055C25.0903 23.4072 21.6124 29.246 16.605 29.246H16.3543V31.9402H16.605C20.0448 31.9402 22.8214 30.0362 24.9284 27.7419L28.9616 31.7275L30.853 29.8109Z" fill="#FFFFFF"></path>
</g>
<defs>
<clipPath id="clip0_6908:5989">
<rect width="64" height="64" fill="white" transform="translate(0.25 0.904785)"></rect>
</clipPath>
</defs>
</symbol></defs><noscript fill="#303545"></noscript><use xlink:href="#new-topic-languages" fill="#303545"></use><noscript fill="#303545"></noscript></svg>