<svg xmlns:xlink="http://www.w3.org/1999/xlink" xmlns="http://www.w3.org/2000/svg" aria-label="Sosyal Bilimler" class="AssemblyIcon AssemblyIcon--medium" role="img" width="64"  height="65" ><defs><symbol fill="none" id="new-topic-social-science" viewBox="0 0 64 65">
<path d="M48.389 5.67798H15.6106C12.8801 5.67798 10.6665 8.19091 10.6665 11.2908V53.3985C10.6665 56.4984 12.8801 59.0113 15.6106 59.0113H48.389C51.1196 59.0113 53.3332 56.4984 53.3332 53.3985V11.2908C53.3332 8.19091 51.1196 5.67798 48.389 5.67798Z" fill="#009AA4"></path>
<path fill-rule="evenodd" clip-rule="evenodd" d="M5.3335 19.904C5.3335 18.8537 6.17527 18.0022 7.21366 18.0022H12.4694C13.5078 18.0022 14.3496 18.8537 14.3496 19.904C14.3496 20.9543 13.5078 21.8057 12.4694 21.8057H7.21366C6.17527 21.8057 5.3335 20.9543 5.3335 19.904Z" fill="#00575D"></path>
<path fill-rule="evenodd" clip-rule="evenodd" d="M5.3335 32.3444C5.3335 31.2941 6.17527 30.4426 7.21366 30.4426H12.4694C13.5078 30.4426 14.3496 31.2941 14.3496 32.3444C14.3496 33.3947 13.5078 34.2462 12.4694 34.2462H7.21366C6.17527 34.2462 5.3335 33.3947 5.3335 32.3444Z" fill="#00575D"></path>
<path fill-rule="evenodd" clip-rule="evenodd" d="M5.3335 44.7848C5.3335 43.7345 6.17527 42.8831 7.21366 42.8831H12.4694C13.5078 42.8831 14.3496 43.7345 14.3496 44.7848C14.3496 45.8351 13.5078 46.6866 12.4694 46.6866H7.21366C6.17527 46.6866 5.3335 45.8351 5.3335 44.7848Z" fill="#00575D"></path>
<path d="M23.893 36.3377C25.5246 35.0294 24.2199 34.051 23.7281 29.6425C23.2362 25.2341 29.1149 25.5583 30.4197 21.9662C31.0706 20.1802 29.2191 19.1092 27.1968 18.4927C23.6946 19.7069 20.7818 22.203 19.0444 25.4788C17.307 28.7546 16.8738 32.5671 17.832 36.1495C18.4054 35.6781 19.0127 35.2496 19.6489 34.8673C21.5033 33.7499 22.2613 37.6431 23.893 36.3377Z" fill="#59E8B5"></path>
<path d="M44.2798 24.3428C42.3823 21.4269 39.5115 19.2799 36.1792 18.2844C36.402 20.7448 37.8716 24.2125 44.2798 24.3428Z" fill="#59E8B5"></path>
<path d="M36.2949 33.3623C35.479 40.2484 36.2949 39.7593 30.9109 44.0056C29.9725 44.7098 29.1854 45.5958 28.5964 46.6107C31.1604 47.2224 33.8417 47.1315 36.3584 46.3476C38.8751 45.5637 41.1342 44.1158 42.898 42.1561C44.6619 40.1964 45.8654 37.7974 46.3819 35.2113C46.8984 32.6252 46.7089 29.9477 45.8333 27.4602C43.3395 27.4168 36.9516 27.8336 36.2949 33.3623Z" fill="#59E8B5"></path>
<path d="M30.9106 44.0118C36.2945 39.7654 35.4787 40.2488 36.2946 33.3685C36.9513 27.834 43.3391 27.4172 45.8243 27.4664C45.4352 26.3676 44.9166 25.3191 44.2794 24.3432C37.8713 24.2129 36.4016 20.7452 36.1788 18.2849C33.2419 17.4123 30.1056 17.4822 27.2104 18.4846C29.2355 19.1098 31.0842 20.1808 30.4332 21.9581C29.114 25.5473 23.2382 25.2318 23.7271 29.6431C24.216 34.0545 25.5237 35.0299 23.892 36.3383C22.2603 37.6466 21.511 33.7505 19.6479 34.8678C19.0117 35.2502 18.4044 35.6787 17.8311 36.1501C18.5172 38.7015 19.8786 41.0204 21.7716 42.8625C23.6647 44.7045 26.0193 46.0016 28.5874 46.6169C29.179 45.6012 29.9691 44.7151 30.9106 44.0118Z" fill="#E6FCF4"></path>
</symbol></defs><noscript fill="#303545"></noscript><use xlink:href="#new-topic-social-science" fill="#303545"></use><noscript fill="#303545"></noscript></svg>