<svg xmlns:xlink="http://www.w3.org/1999/xlink" xmlns="http://www.w3.org/2000/svg" aria-label="Diğer" class="AssemblyIcon AssemblyIcon--medium" role="img" width="64"  height="65" ><defs><symbol fill="none" id="new-topic-other" viewBox="0 0 64 65">
<rect x="15.9995" y="55.1414" width="32" height="4" rx="2" fill="#002C6D"></rect>
<rect x="27.9995" y="48.4746" width="8" height="10.6667" fill="#002C6D"></rect>
<path d="M5.33301 40.4749H58.6663V43.4749C58.6663 46.2363 56.4278 48.4749 53.6663 48.4749H10.333C7.57158 48.4749 5.33301 46.2363 5.33301 43.4749V40.4749Z" fill="#002C6D"></path>
<path d="M31.9999 46.2081C32.9572 46.2081 33.7333 45.4321 33.7333 44.4748C33.7333 43.5175 32.9572 42.7415 31.9999 42.7415C31.0426 42.7415 30.2666 43.5175 30.2666 44.4748C30.2666 45.4321 31.0426 46.2081 31.9999 46.2081Z" fill="#ADE8FF"></path>
<path d="M5.33301 10.8079C5.33301 8.04644 7.57158 5.80786 10.333 5.80786H53.6663C56.4278 5.80786 58.6663 8.04644 58.6663 10.8079V40.4745H5.33301V10.8079Z" fill="#CBF1FF"></path>
<path fill-rule="evenodd" clip-rule="evenodd" d="M35.7932 32.8034L35.6774 32.6393L25.9374 18.3774C25.452 17.719 24.8191 17.1839 24.0896 16.8152C23.3602 16.4465 22.5545 16.2544 21.7374 16.2544C20.9204 16.2544 20.1147 16.4465 19.3853 16.8152C18.6558 17.1839 18.0229 17.719 17.5375 18.3774L5.33789 36.0057V40.4749C5.33789 40.4749 5.7886 40.4746 6.02188 40.4749H33.2188C33.2569 40.4773 33.295 40.4783 33.3333 40.4779H58.6665V36.0313L49.465 22.5787C49.0691 22.0415 48.5528 21.6049 47.9577 21.304C47.3626 21.0031 46.7054 20.8464 46.0388 20.8464C45.3722 20.8464 44.7149 21.0031 44.1198 21.304C43.5248 21.6049 43.0085 22.0415 42.6126 22.5787L35.7932 32.8034Z" fill="#51CFFF"></path>
</symbol></defs><noscript fill="#303545"></noscript><use xlink:href="#new-topic-other" fill="#303545"></use><noscript fill="#303545"></noscript></svg>