<svg xmlns:xlink="http://www.w3.org/1999/xlink" xmlns="http://www.w3.org/2000/svg" aria-label="Güzel sanatlar ve insani bilimler" class="AssemblyIcon AssemblyIcon--medium" role="img" width="65"  height="65" ><defs><symbol fill="none" id="new-topic-arts-and-humanities" viewBox="0 0 65 65">
<path d="M54.0822 50.3838H12.4676C11.5726 50.3838 10.7143 50.7393 10.0814 51.3722C9.44859 52.005 9.09302 52.8634 9.09302 53.7583C9.09302 54.6533 9.44859 55.5116 10.0814 56.1445C10.7143 56.7773 11.5726 57.1329 12.4676 57.1329H55.8508C57.2617 57.1329 58.8763 56.4842 59.3796 55.2565L54.0822 50.3838Z" fill="#F6406C"></path>
<path d="M25.7857 44.1934H8.99442C7.13071 44.1934 5.61987 45.7042 5.61987 47.5679C5.61987 49.4316 7.13071 50.9425 8.99442 50.9425H25.7857C27.6494 50.9425 29.1602 49.4316 29.1602 47.5679C29.1602 45.7042 27.6494 44.1934 25.7857 44.1934Z" fill="#F6406C"></path>
<path d="M50.2622 39.0045C52.3622 39.6912 54.1363 41.1261 55.2467 43.0361C55.3426 43.2053 55.43 43.3772 55.5287 43.552C53.6453 44.9887 52.2314 46.9526 51.4664 49.1944C50.7014 51.4362 50.6198 53.8548 51.2321 56.1431C47.956 55.7117 44.6518 54.7757 42.7262 52.8388C39.2472 49.3401 39.7096 45.4015 39.7096 45.4015C39.7096 45.4015 46.521 38.6352 46.5379 38.6126C47.1413 38.0036 49.6533 38.7959 50.2622 39.0045Z" fill="#5E0F5B"></path>
<path d="M55.5145 43.551C56.1996 44.9607 56.5323 46.5451 56.8565 48.0957C57.3273 50.3512 57.939 52.3529 59.1288 54.1065C59.2777 54.3311 59.3637 54.5916 59.3776 54.8608C59.3915 55.13 59.3329 55.398 59.2079 55.6368C59.0829 55.8756 58.896 56.0764 58.6669 56.2184C58.4377 56.3603 58.1747 56.4381 57.9053 56.4437C55.6761 56.5063 53.4454 56.4017 51.2319 56.1308C50.6206 53.8455 50.7012 51.4302 51.4635 49.1908C52.2259 46.9514 53.6358 44.9886 55.5145 43.551Z" fill="#F6406C"></path>
<path d="M13.5295 21.0876L16.1289 23.6842L26.5011 13.3092L23.9046 10.7126C23.2238 10.031 22.4154 9.49039 21.5255 9.1215C20.6356 8.75262 19.6817 8.56274 18.7184 8.56274C17.7551 8.56274 16.8013 8.75262 15.9115 9.1215C15.0216 9.49039 14.2131 10.031 13.5323 10.7126C12.8502 11.3932 12.309 12.2017 11.9396 13.0917C11.5702 13.9818 11.3799 14.9359 11.3796 15.8995C11.3794 16.8632 11.5692 17.8174 11.9381 18.7076C12.307 19.5979 12.8477 20.4066 13.5295 21.0876Z" fill="#5E0F5B"></path>
<path d="M37.6772 45.2318C37.8225 45.3772 37.995 45.4925 38.1848 45.5711C38.3747 45.6498 38.5782 45.6903 38.7837 45.6903C38.9892 45.6903 39.1927 45.6498 39.3826 45.5711C39.5725 45.4925 39.745 45.3772 39.8903 45.2318L48.0522 37.0727C48.3445 36.7781 48.5086 36.3798 48.5086 35.9648C48.5086 35.5497 48.3445 35.1514 48.0522 34.8568L26.5155 13.3088L16.1433 23.6839L37.6772 45.2318Z" fill="#F6406C"></path>
</symbol></defs><noscript fill="#303545"></noscript><use xlink:href="#new-topic-arts-and-humanities" fill="#303545"></use><noscript fill="#303545"></noscript></svg>