<svg xmlns:xlink="http://www.w3.org/1999/xlink" xmlns="http://www.w3.org/2000/svg" aria-label="Matematik" class="AssemblyIcon AssemblyIcon--medium" role="img" width="64"  height="65" ><defs><symbol fill="none" id="new-topic-math" viewBox="0 0 64 65">
<path d="M50.4528 11.5066L45.0335 6.12158L5.33325 46.0529L10.7525 51.4379C16.0558 56.663 23.2128 59.5748 30.6576 59.5364C38.1025 59.4979 45.229 56.5122 50.478 51.2326C55.7271 45.953 58.6713 38.8093 58.6666 31.3644C58.6618 23.9195 55.7085 16.7795 50.4528 11.5066ZM41.4483 42.2566C39.2281 44.4864 36.3761 45.9798 33.2787 46.5344C30.1813 47.0889 26.9883 46.6779 24.1324 45.3569L44.446 24.9235C45.782 27.7718 46.2109 30.9617 45.6748 34.0618C45.1386 37.1618 43.6633 40.0224 41.4483 42.2566Z" fill="#FFCD1F"></path>
<path d="M36.3125 14.8331L34.8269 16.3364L41.5868 23.0165L43.0724 21.5132L36.3125 14.8331Z" fill="#FF983A"></path>
<path d="M31.1157 20.0909L29.6301 21.5942L34.138 26.049L35.6236 24.5457L31.1157 20.0909Z" fill="#FFCD1F"></path>
<path d="M41.5586 9.58577L40.073 11.0891L44.5809 15.5438L46.0665 14.0405L41.5586 9.58577Z" fill="#FF983A"></path>
<path d="M25.9214 25.3488L24.4358 26.8521L31.1956 33.5321L32.6812 32.0289L25.9214 25.3488Z" fill="#FFCD1F"></path>
<path d="M15.5278 35.8632L14.0422 37.3665L20.8021 44.0466L22.2877 42.5433L15.5278 35.8632Z" fill="#FF983A"></path>
<path d="M20.7226 30.6092L19.2371 32.1125L23.745 36.5673L25.2306 35.064L20.7226 30.6092Z" fill="#FFCD1F"></path>
<path d="M10.3291 41.1238L8.84351 42.6272L13.3514 47.0819L14.837 45.5786L10.3291 41.1238Z" fill="#FF983A"></path>
<path d="M57.2972 48.4113L50.2259 41.3516L43.4603 48.1172L41.9497 46.6067L48.7125 39.8439L44.9333 36.0762L40.4508 40.5675L38.9402 39.0569L43.4286 34.5715L39.6494 30.8038L32.9039 37.5493L31.3934 36.0416L38.1388 29.2961L34.3568 25.5285L29.8742 29.9938L28.3665 28.4832L32.8376 24.0122L29.0555 20.2445L22.3272 26.9756L20.8167 25.465L27.5449 18.7513L23.7658 14.9836L19.3091 19.4402L17.7985 17.9326L22.2523 13.4788L16.7752 8.03052C16.4726 7.72862 16.0626 7.55908 15.6351 7.55908C15.2076 7.55908 14.7976 7.72862 14.495 8.03052L6.08907 16.4076C5.93951 16.5565 5.82084 16.7335 5.73986 16.9285C5.65888 17.1234 5.61719 17.3323 5.61719 17.5434C5.61719 17.7545 5.65888 17.9635 5.73986 18.1584C5.82084 18.3533 5.93951 18.5303 6.08907 18.6792L46.6024 59.0657C46.9046 59.3674 47.3141 59.5369 47.7411 59.5369C48.1681 59.5369 48.5776 59.3674 48.8797 59.0657L57.2856 50.6886C57.4372 50.5405 57.5579 50.3639 57.6406 50.1688C57.7233 49.9738 57.7664 49.7642 57.7675 49.5524C57.7685 49.3405 57.7275 49.1305 57.6468 48.9347C57.566 48.7388 57.4472 48.5609 57.2972 48.4113Z" fill="#FF983A"></path>
<path d="M29.8745 30.0016L34.3485 25.5277L32.8351 24.02L28.364 28.4911L29.8745 30.0016Z" fill="#FFCD1F"></path>
<path d="M22.3279 26.9841L29.0561 20.253L27.5456 18.7454L20.8174 25.4736L22.3279 26.9841Z" fill="#FFCD1F"></path>
<path d="M19.3094 19.4348L23.7631 14.9782L22.2526 13.4734L17.7988 17.9271L19.3094 19.4348Z" fill="#FFCD1F"></path>
<path d="M40.4422 40.568L44.9305 36.0768L43.42 34.572L38.9316 39.0604L40.4422 40.568Z" fill="#FFCD1F"></path>
<path d="M32.8924 37.5493L39.6408 30.8038L38.1274 29.2961L31.3848 36.0416L32.8924 37.5493Z" fill="#FFCD1F"></path>
<path d="M43.4602 48.1176L50.223 41.3519L48.7125 39.8442L41.9497 46.607L43.4602 48.1176Z" fill="#FFCD1F"></path>
</symbol></defs><noscript fill="#303545"></noscript><use xlink:href="#new-topic-math" fill="#303545"></use><noscript fill="#303545"></noscript></svg>