<svg xmlns="http://www.w3.org/2000/svg" viewBox="0 0 30 30"><defs><style>.cls-1{fill:#3b5998;}</style></defs><g id="Layer_2" data-name="Layer 2"><g id="Layer_1-2" data-name="Layer 1"><g id="facebook-inverse"><path class="cls-1" d="M28.34,0A1.66,1.66,0,0,1,30,1.66V28.34A1.66,1.66,0,0,1,28.34,30H20.7V18.38h3.9l.58-4.52H20.7V11c0-1.32.36-2.21,2.24-2.21h2.4v-4a30.6,30.6,0,0,0-3.49-.18c-3.46,0-5.83,2.11-5.83,6v3.34H12.11v4.53H16V30H1.66A1.66,1.66,0,0,1,0,28.34V1.66A1.66,1.66,0,0,1,1.66,0Z"/></g></g></g></svg>