<svg xmlns:xlink="http://www.w3.org/1999/xlink" xmlns="http://www.w3.org/2000/svg" aria-label="quizlet logosu" class="AssemblyIcon AssemblyIcon--large" role="img"  ><defs><symbol id="q-logo" viewBox="0 0 19 20">
<path d="M10.0515 0.0202651C8.59746 -0.0754484 7.14142 0.168786 5.79651 0.733826C4.45227 1.29887 3.25621 2.16887 2.30293 3.2765C1.34966 4.38414 0.662983 5.69772 0.299137 7.1156C-0.0647083 8.53348 -0.0971236 10.0174 0.204537 11.4498C0.506198 12.8828 1.13466 14.2255 2.03898 15.3734C2.94396 16.5213 4.10033 17.4434 5.41944 18.0665C6.73788 18.6903 8.18202 18.9979 9.63872 18.9669C11.0954 18.9352 12.525 18.5656 13.8163 17.8857C13.8573 17.8646 13.9037 17.8547 13.95 17.8573C13.9963 17.8599 14.0413 17.8745 14.0796 17.9002C14.3535 18.0837 14.6393 18.2481 14.935 18.3926C15.9597 18.891 17.085 19.1438 18.2228 19.1319C18.293 19.1319 18.3598 19.1042 18.4094 19.0547C18.459 19.0052 18.4868 18.9379 18.4868 18.8672V15.6486C18.4874 15.5853 18.4663 15.5245 18.4259 15.4757C18.3856 15.4268 18.33 15.3945 18.2678 15.3839C17.9648 15.3357 17.6685 15.2506 17.386 15.1298C17.3509 15.114 17.3198 15.0915 17.2947 15.0625C17.2696 15.0334 17.251 14.9998 17.2404 14.9628C17.2299 14.9258 17.2272 14.8875 17.2325 14.8493C17.2378 14.8116 17.2517 14.7753 17.2722 14.743C18.1924 13.3588 18.7342 11.7554 18.842 10.0946C18.9505 8.43381 18.6211 6.77302 17.8881 5.27989C17.1551 3.78676 16.0444 2.51476 14.6664 1.58997C13.2891 0.665836 11.6935 0.121919 10.0409 0.0143242L10.0515 0.0202651ZM3.7259 9.48534C3.72458 8.34932 4.05865 7.23772 4.68579 6.29247C5.31293 5.34722 6.20534 4.60989 7.24925 4.17423C8.29316 3.73857 9.44291 3.62437 10.5516 3.8455C11.6604 4.06664 12.6791 4.61385 13.4789 5.41652C14.2787 6.21986 14.8232 7.24366 15.0435 8.3579C15.2644 9.47214 15.1507 10.6273 14.718 11.6775C14.2854 12.7271 13.5524 13.6241 12.6117 14.2552C11.6716 14.8862 10.5662 15.2222 9.43563 15.2215C7.92137 15.2215 6.46863 14.6176 5.39761 13.5416C4.32658 12.4657 3.72325 11.0069 3.72193 9.48468H3.7259V9.48534Z"></path>
</symbol></defs><noscript fill="currentColor"></noscript><use xlink:href="#q-logo" fill="currentColor"></use><noscript fill="currentColor"></noscript></svg>