<svg xmlns:xlink="http://www.w3.org/1999/xlink" xmlns="http://www.w3.org/2000/svg" aria-label="sets" class="AssemblyIcon AssemblyIcon--medium" role="presentation" width="20"  height="20" ><defs><symbol id="sets" viewBox="0 0 20 20">
<path d="M3 19V17H1C1 18.1 1.89 19 3 19ZM1 17H3V5H1V17ZM3 19H15V17H3V19ZM17 1H7C5.89 1 5 1.9 5 3V13C5 14.1 5.89 15 7 15H17C18.1 15 19 14.1 19 13V3C19 1.9 18.1 1 17 1ZM17 13H7V3H17V13Z"></path>
</symbol></defs><noscript fill="#939BB4"></noscript><use xlink:href="#sets" fill="#939BB4"></use><noscript fill="#939BB4"></noscript></svg>